<?xml version="1.0" encoding="utf-8"?>
<!-- Generator: Adobe Illustrator 15.1.0, SVG Export Plug-In . SVG Version: 6.00 Build 0)  -->
<!DOCTYPE svg PUBLIC "-//W3C//DTD SVG 1.1//EN" "http://www.w3.org/Graphics/SVG/1.1/DTD/svg11.dtd">
<svg version="1.1" id="Calque_1" xmlns="http://www.w3.org/2000/svg" xmlns:xlink="http://www.w3.org/1999/xlink" x="0px" y="0px"
	 width="30px" height="30px" viewBox="0 0 30 30" enable-background="new 0 0 30 30" xml:space="preserve">
<g>
	<g>
		<g>
			<path fill="#3D474F" d="M15,7.223L4.444,12.777L15,18.332l6.11-3.09c0,0,0,2.801,0,4.202c0,2.223,2.223,2.223,2.223,2.223v-1.111
				c0,0-1.111-0.064-1.111-1.111c0-1.666,0-4.827,0-4.827l3.334-1.839L15,7.223z"/>
		</g>
		<g>
			<path fill="#3D474F" d="M10,17.223v2.221c0,0.553,0.361,1.291,1.111,1.668L15,22.777l3.333-1.668
				c0.75-0.375,1.719-1.117,1.667-1.666v-2.221l-5,2.43L10,17.223z"/>
		</g>
	</g>
</g>
<rect fill="none" width="30" height="30"/>
</svg>
