<?xml version="1.0" encoding="utf-8"?>
<!-- Generator: Adobe Illustrator 15.1.0, SVG Export Plug-In . SVG Version: 6.00 Build 0)  -->
<!DOCTYPE svg PUBLIC "-//W3C//DTD SVG 1.1//EN" "http://www.w3.org/Graphics/SVG/1.1/DTD/svg11.dtd">
<svg version="1.1" id="Calque_1" xmlns="http://www.w3.org/2000/svg" xmlns:xlink="http://www.w3.org/1999/xlink" x="0px" y="0px"
	 width="30px" height="30px" viewBox="0 0 30 30" enable-background="new 0 0 30 30" xml:space="preserve">
<path fill="#DEFF3F" d="M15,1.75C7.682,1.75,1.75,7.682,1.75,15S7.682,28.25,15,28.25c7.316,0,13.25-5.932,13.25-13.25
	S22.316,1.75,15,1.75z M20,19.443c0.052,0.549-0.917,1.291-1.667,1.666L15,22.777l-3.89-1.666C10.36,20.734,10,19.997,10,19.443
	v-2.221l5,2.43l5-2.43V19.443z M23.333,20.557v1.11c0,0-2.224,0-2.224-2.224c0-1.4,0-4.201,0-4.201L15,18.332L4.443,12.776L15,7.223
	l10.557,5.556l-3.334,1.84c0,0,0,3.161,0,4.827C22.223,20.492,23.333,20.557,23.333,20.557z"/>
<rect fill="none" width="30" height="30"/>
</svg>
