<?xml version="1.0" encoding="utf-8"?>
<!-- Generator: Adobe Illustrator 15.1.0, SVG Export Plug-In . SVG Version: 6.00 Build 0)  -->
<!DOCTYPE svg PUBLIC "-//W3C//DTD SVG 1.1//EN" "http://www.w3.org/Graphics/SVG/1.1/DTD/svg11.dtd">
<svg version="1.1" id="Calque_1" xmlns="http://www.w3.org/2000/svg" xmlns:xlink="http://www.w3.org/1999/xlink" x="0px" y="0px"
	 width="30px" height="30px" viewBox="0 0 30 30" enable-background="new 0 0 30 30" xml:space="preserve">
<g>
	<path fill="#3D474F" d="M5.759,5.5v19h8.637v-19H5.759z M8.349,21.045H6.622v-1.727h1.727V21.045z M8.349,18.455H6.622v-1.729
		h1.727V18.455z M8.349,15.863H6.622v-1.728h1.727V15.863z M8.349,13.273H6.622v-1.728h1.727V13.273z M8.349,10.682H6.622V8.955
		h1.727V10.682z M8.349,8.092H6.622V6.363h1.727V8.092z M10.941,21.045H9.215v-1.727h1.727L10.941,21.045L10.941,21.045z
		 M10.941,18.455H9.215v-1.729h1.727L10.941,18.455L10.941,18.455z M10.941,15.863H9.215v-1.728h1.727L10.941,15.863L10.941,15.863z
		 M10.941,13.273H9.215v-1.728h1.727L10.941,13.273L10.941,13.273z M10.941,10.682H9.215V8.955h1.727L10.941,10.682L10.941,10.682z
		 M10.941,8.092H9.215V6.363h1.727L10.941,8.092L10.941,8.092z M13.532,21.045h-1.729v-1.727h1.729V21.045z M13.532,18.455h-1.729
		v-1.729h1.729V18.455z M13.532,15.863h-1.729v-1.728h1.729V15.863z M13.532,13.273h-1.729v-1.728h1.729V13.273z M13.532,10.682
		h-1.729V8.955h1.729V10.682z M13.532,8.092h-1.729V6.363h1.729V8.092z"/>
	<path fill="#3D474F" d="M15.604,10.682V24.5h8.638V10.682H15.604z M18.195,21.045h-1.725v-1.727h1.727v1.727H18.195z
		 M18.195,18.455h-1.725v-1.729h1.727v1.729H18.195z M18.195,15.863h-1.725v-1.728h1.727v1.728H18.195z M18.195,13.273h-1.725
		v-1.728h1.727v1.728H18.195z M20.785,21.045h-1.727v-1.727h1.727V21.045z M20.785,18.455h-1.727v-1.729h1.727V18.455z
		 M20.785,15.863h-1.727v-1.728h1.727V15.863z M20.785,13.273h-1.727v-1.728h1.727V13.273z M23.377,21.045H21.65v-1.727h1.727
		V21.045L23.377,21.045z M23.377,18.455H21.65v-1.729h1.727V18.455L23.377,18.455z M23.377,15.863H21.65v-1.728h1.727V15.863
		L23.377,15.863z M23.377,13.273H21.65v-1.728h1.727V13.273L23.377,13.273z"/>
</g>
<rect fill="none" width="30" height="30"/>
</svg>
