<?xml version="1.0" encoding="utf-8"?>
<!-- Generator: Adobe Illustrator 15.1.0, SVG Export Plug-In . SVG Version: 6.00 Build 0)  -->
<!DOCTYPE svg PUBLIC "-//W3C//DTD SVG 1.1//EN" "http://www.w3.org/Graphics/SVG/1.1/DTD/svg11.dtd">
<svg version="1.1" id="Calque_1" xmlns="http://www.w3.org/2000/svg" xmlns:xlink="http://www.w3.org/1999/xlink" x="0px" y="0px"
	 width="30px" height="30px" viewBox="0 0 30 30" enable-background="new 0 0 30 30" xml:space="preserve">
<g id="XMLID_19_">
	<g>
		<g>
			<g>
				<g>
					<g>
						<g>
							<g>
								<g>
									<path fill="#3D474F" d="M13.793,14.734c0.083,0.096,0.16,0.188,0.229,0.265c-0.106,0.126-0.229,0.269-0.358,0.426
										c-0.367,0.431-0.874,1.032-1.433,1.621c-0.934,0.984-1.999,1.935-2.744,1.984c-0.781,0.04-1.232-0.328-1.473-0.646
										c-0.377-0.495-0.496-1.21-0.299-1.807c0.206-0.621,1.329-1.494,1.329-1.494s-1.123-0.879-1.329-1.495
										c-0.197-0.601-0.078-1.307,0.299-1.809c0.24-0.318,0.691-0.687,1.47-0.647c0.697,0.048,1.659,0.822,2.544,1.692
										C12.718,13.5,13.36,14.233,13.793,14.734z"/>
									<path fill="#3D474F" d="M18.248,8.395c0.318,0.241,0.688,0.692,0.648,1.465c-0.049,0.662-0.74,1.557-1.547,2.399
										c-0.718,0.745-1.523,1.449-2.058,1.914c-0.096,0.082-0.186,0.16-0.264,0.231c-0.126-0.108-0.27-0.231-0.427-0.362
										c-0.534-0.454-1.342-1.136-2.057-1.854c-0.809-0.821-1.504-1.687-1.548-2.32c-0.039-0.78,0.329-1.231,0.646-1.473
										c0.497-0.378,1.21-0.498,1.808-0.301c0.62,0.203,1.494,1.326,1.494,1.326s0.878-1.123,1.496-1.326
										C17.04,7.897,17.747,8.017,18.248,8.395z"/>
									<path fill="#3D474F" d="M21.982,11.589c0.379,0.501,0.5,1.211,0.3,1.808c-0.203,0.619-1.326,1.494-1.326,1.494
										s1.123,0.878,1.326,1.495c0.2,0.601,0.081,1.312-0.3,1.81c-0.239,0.318-0.691,0.687-1.467,0.646
										c-0.697-0.049-1.662-0.822-2.547-1.689c-0.691-0.68-1.328-1.416-1.766-1.912c-0.081-0.096-0.159-0.183-0.229-0.264
										c0.104-0.126,0.229-0.269,0.359-0.423c0.408-0.482,1.001-1.185,1.637-1.84c0.881-0.904,1.848-1.72,2.537-1.769
										C21.291,10.905,21.743,11.273,21.982,11.589z"/>
									<path fill="#3D474F" d="M19.027,20.133c0.039,0.779-0.328,1.23-0.646,1.473c-0.501,0.379-1.21,0.496-1.808,0.302
										c-0.619-0.205-1.494-1.331-1.494-1.331s-0.878,1.126-1.494,1.331c-0.601,0.194-1.308,0.077-1.809-0.302
										c-0.318-0.241-0.687-0.692-0.648-1.467c0.049-0.662,0.74-1.555,1.547-2.397c0.716-0.744,1.522-1.448,2.057-1.913
										c0.095-0.082,0.183-0.16,0.264-0.23c0.126,0.107,0.269,0.23,0.427,0.359c0.529,0.448,1.329,1.125,2.039,1.838
										C18.279,18.62,18.984,19.495,19.027,20.133z"/>
								</g>
							</g>
						</g>
					</g>
				</g>
			</g>
		</g>
	</g>
</g>
<rect fill="none" width="30" height="30"/>
</svg>
