<?xml version="1.0" encoding="utf-8"?>
<!-- Generator: Adobe Illustrator 15.1.0, SVG Export Plug-In . SVG Version: 6.00 Build 0)  -->
<!DOCTYPE svg PUBLIC "-//W3C//DTD SVG 1.1//EN" "http://www.w3.org/Graphics/SVG/1.1/DTD/svg11.dtd">
<svg version="1.1" id="Calque_1" xmlns="http://www.w3.org/2000/svg" xmlns:xlink="http://www.w3.org/1999/xlink" x="0px" y="0px"
	 width="30px" height="30px" viewBox="0 0 30 30" enable-background="new 0 0 30 30" xml:space="preserve">
<path fill="#3D474F" d="M20.971,19.818c-0.281,0.149-0.686,0.297-1.211,0.438s-1.09,0.217-1.688,0.225
	c-0.643,0.004-1.246-0.1-1.812-0.305c-0.564-0.207-1.055-0.539-1.467-0.992c-0.381-0.43-0.662-1.022-0.838-1.783h6.377v-1.748H13.6
	c0-0.135,0-0.282,0-0.442c-0.006-0.302,0.004-0.588,0.023-0.86h6.709v-1.747h-6.328c0.17-0.691,0.443-1.252,0.814-1.684
	c0.4-0.479,0.866-0.832,1.398-1.061c0.531-0.226,1.103-0.34,1.703-0.338c0.565,0.006,1.099,0.073,1.597,0.202
	c0.496,0.129,0.912,0.267,1.25,0.417l0.713-2.881c-0.465-0.21-1.021-0.389-1.679-0.529c-0.651-0.146-1.366-0.224-2.135-0.229
	c-1.213,0.005-2.314,0.233-3.301,0.682c-0.988,0.45-1.832,1.084-2.535,1.909c-0.818,0.931-1.393,2.101-1.715,3.511H8.42v1.747h1.422
	c-0.008,0.278-0.018,0.554-0.023,0.833c0,0.168,0,0.327,0,0.47H8.42V17.4h1.646c0.238,1.348,0.703,2.447,1.393,3.303
	c0.707,0.91,1.594,1.604,2.656,2.08c1.064,0.475,2.23,0.713,3.5,0.717c0.82-0.012,1.58-0.107,2.268-0.293
	c0.691-0.186,1.256-0.398,1.697-0.641L20.971,19.818z"/>
<rect fill="none" width="30" height="30"/>
</svg>
